<svg width="610" height="628" viewBox="0 0 610 628" fill="none" xmlns="http://www.w3.org/2000/svg">
<path d="M203.5 65.1875C204.422 65.1875 205.188 64.4225 205.188 63.5V59C205.188 51.9125 207.19 47.1875 217 47.1875C226.81 47.1875 228.812 51.9125 228.812 59V63.5C228.812 64.4225 229.578 65.1875 230.5 65.1875C231.422 65.1875 232.188 64.4225 232.188 63.5V59C232.188 52.475 230.613 43.8125 217 43.8125C203.387 43.8125 201.812 52.475 201.812 59V63.5C201.812 64.4225 202.578 65.1875 203.5 65.1875Z" fill="#FF8000" fill-opacity="0.3"/>
<path d="M217 84.3125C221.027 84.3125 224.312 81.0275 224.312 77C224.312 72.9725 221.027 69.6875 217 69.6875C212.973 69.6875 209.688 72.9725 209.688 77C209.688 81.0275 212.973 84.3125 217 84.3125ZM217 73.0625C219.16 73.0625 220.938 74.84 220.938 77C220.938 79.16 219.16 80.9375 217 80.9375C214.84 80.9375 213.062 79.16 213.062 77C213.062 74.84 214.84 73.0625 217 73.0625Z" fill="#FF8000" fill-opacity="0.3"/>
<path d="M205.75 92.1875H228.25C238.172 92.1875 241.188 89.1725 241.188 79.25V74.75C241.188 64.8275 238.172 61.8125 228.25 61.8125H205.75C195.828 61.8125 192.812 64.8275 192.812 74.75V79.25C192.812 89.1725 195.828 92.1875 205.75 92.1875ZM228.25 65.1875C236.305 65.1875 237.812 66.7175 237.812 74.75V79.25C237.812 87.2825 236.305 88.8125 228.25 88.8125H205.75C197.695 88.8125 196.188 87.2825 196.188 79.25V74.75C196.188 66.7175 197.695 65.1875 205.75 65.1875H228.25Z" fill="#FF8000" fill-opacity="0.3"/>
<path d="M376.642 562.864C370.405 561.462 363.9 561.682 358.19 564.145C352.446 566.623 347.618 571.326 344.735 578.655C342.706 583.815 342.36 590.626 344.213 596.852C346.076 603.113 350.21 608.905 357.238 611.758C364.025 614.513 371.776 615.026 378.18 612.61C384.676 610.16 389.679 604.722 390.767 595.937C391.881 586.942 386.846 580.552 380.528 577.43C374.324 574.364 366.439 574.242 361.506 578.251C356.781 582.091 355.466 586.706 356.279 590.764C357.066 594.689 359.829 597.956 362.975 599.233C365.852 600.401 368.788 600.688 371.276 599.959C373.815 599.214 375.826 597.413 376.642 594.636L373.667 593.739C373.179 595.402 372.029 596.465 370.413 596.939C368.744 597.428 366.531 597.29 364.13 596.315C361.997 595.449 359.909 593.074 359.32 590.138C358.759 587.336 359.546 583.874 363.448 580.703C367.143 577.7 373.646 577.527 379.167 580.255C384.574 582.927 388.601 588.174 387.688 595.546C386.749 603.127 382.55 607.608 377.098 609.664C371.554 611.756 364.612 611.365 358.392 608.84C352.413 606.413 348.834 601.488 347.184 595.944C345.523 590.365 345.861 584.285 347.618 579.819C350.206 573.24 354.449 569.176 359.405 567.038C364.396 564.885 370.219 564.641 375.97 565.933C387.56 568.539 398.268 577.223 400.823 587.847C406.044 609.56 391.022 623.033 379.471 624.895L379.959 628C393.029 625.892 409.55 610.859 403.838 587.103C400.925 574.992 389.027 565.648 376.642 562.864Z" fill="#FF8000" fill-opacity="0.3"/>
<path d="M31.763 464.19C31.2595 476.601 29.3625 483.201 24.9252 487.203C22.6901 489.218 19.6941 490.681 15.5994 491.819C11.4952 492.96 6.38766 493.748 0 494.475L0.0938034 497.637C12.9127 498.337 19.9294 500.753 24.188 505.288C28.4991 509.878 30.3087 516.954 31.7756 527.959L34.9277 528C36.6264 517.394 38.3758 510.75 42.5157 506.435C46.6061 502.173 53.3393 499.896 65.9303 499.045L66 495.884C52.5782 494.384 45.8836 491.484 41.9952 486.739C40.032 484.343 38.6936 481.37 37.6306 477.607C36.5634 473.829 35.8005 469.361 34.9269 464L31.763 464.19ZM33.8392 475.626C34.0666 476.608 34.3064 477.555 34.5641 478.468C35.6932 482.464 37.1873 485.89 39.5276 488.746C42.822 492.767 47.617 495.449 54.8396 497.219C48.2386 498.54 43.5762 500.736 40.2132 504.241C36.8078 507.79 34.8827 512.543 33.4634 518.606C32.0918 512.078 30.1032 506.94 26.5141 503.119C23.1581 499.545 18.5403 497.254 12.1272 495.896C13.6644 495.589 15.1056 495.252 16.4551 494.877C20.824 493.663 24.3319 492.019 27.0627 489.557C30.6614 486.312 32.7112 481.829 33.8392 475.626Z" fill="#FF8000" fill-opacity="0.3"/>
<path d="M580 56.9001C582.725 56.9001 585.425 56.1001 587.55 54.5251L598.3 46.5001C601.15 44.3751 603.375 39.9501 603.375 36.4001V17.8001C603.375 13.9501 600.55 9.8501 596.925 8.5001L584.45 3.8251C581.975 2.9001 578.075 2.9001 575.6 3.8251L563.1 8.5001C559.475 9.8501 556.65 13.9501 556.65 17.8001V36.3751C556.65 39.9251 558.875 44.3501 561.725 46.4751L572.475 54.5001C574.575 56.1001 577.275 56.9001 580 56.9001ZM583.125 7.3501L595.6 12.0251C597.75 12.8251 599.625 15.5251 599.625 17.8251V36.4001C599.625 38.7751 597.95 42.1001 596.075 43.5001L585.325 51.5251C582.45 53.6751 577.575 53.6751 574.7 51.5251L563.95 43.5001C562.05 42.0751 560.4 38.7501 560.4 36.4001V17.8001C560.4 15.5251 562.275 12.8251 564.425 12.0001L576.9 7.3251C578.55 6.7251 581.45 6.7251 583.125 7.3501Z" fill="#FF8000" fill-opacity="0.3"/>
<path d="M580 33.125C583.8 33.125 586.875 30.05 586.875 26.25C586.875 22.45 583.8 19.375 580 19.375C576.2 19.375 573.125 22.45 573.125 26.25C573.125 30.05 576.2 33.125 580 33.125ZM580 23.125C581.725 23.125 583.125 24.525 583.125 26.25C583.125 27.975 581.725 29.375 580 29.375C578.275 29.375 576.875 27.975 576.875 26.25C576.875 24.525 578.275 23.125 580 23.125Z" fill="#FF8000" fill-opacity="0.3"/>
<path d="M580 40.625C581.025 40.625 581.875 39.775 581.875 38.75V31.25C581.875 30.225 581.025 29.375 580 29.375C578.975 29.375 578.125 30.225 578.125 31.25V38.75C578.125 39.775 578.975 40.625 580 40.625Z" fill="#FF8000" fill-opacity="0.3"/>
</svg>
