<svg width="94" height="94" viewBox="0 0 94 94" fill="none" xmlns="http://www.w3.org/2000/svg">
<rect width="94" height="94" rx="19" fill="#FFE352" fill-opacity="0.42"/>
<path d="M27.209 32.417C27.209 31.5882 27.5382 30.7933 28.1243 30.2073C28.7103 29.6212 29.5052 29.292 30.334 29.292H63.6673C64.4961 29.292 65.291 29.6212 65.877 30.2073C66.4631 30.7933 66.7923 31.5882 66.7923 32.417C66.7923 33.2458 66.4631 34.0407 65.877 34.6267C65.291 35.2128 64.4961 35.542 63.6673 35.542H30.334C29.5052 35.542 28.7103 35.2128 28.1243 34.6267C27.5382 34.0407 27.209 33.2458 27.209 32.417ZM30.334 43.8753C29.5052 43.8753 28.7103 44.2046 28.1243 44.7906C27.5382 45.3767 27.209 46.1715 27.209 47.0003C27.209 47.8291 27.5382 48.624 28.1243 49.21C28.7103 49.7961 29.5052 50.1253 30.334 50.1253H42.834C43.6628 50.1253 44.4576 49.7961 45.0437 49.21C45.6297 48.624 45.959 47.8291 45.959 47.0003C45.959 46.1715 45.6297 45.3767 45.0437 44.7906C44.4576 44.2046 43.6628 43.8753 42.834 43.8753H30.334ZM27.209 61.5837C27.209 60.7549 27.5382 59.96 28.1243 59.374C28.7103 58.7879 29.5052 58.4587 30.334 58.4587H32.4173C33.2461 58.4587 34.041 58.7879 34.627 59.374C35.2131 59.96 35.5423 60.7549 35.5423 61.5837C35.5423 62.4125 35.2131 63.2073 34.627 63.7934C34.041 64.3794 33.2461 64.7087 32.4173 64.7087H30.334C29.5052 64.7087 28.7103 64.3794 28.1243 63.7934C27.5382 63.2073 27.209 62.4125 27.209 61.5837ZM48.0423 61.5837C48.0423 60.7549 48.3716 59.96 48.9576 59.374C49.5437 58.7879 50.3385 58.4587 51.1673 58.4587H53.2507C54.0795 58.4587 54.8743 58.7879 55.4604 59.374C56.0464 59.96 56.3757 60.7549 56.3757 61.5837C56.3757 62.4125 56.0464 63.2073 55.4604 63.7934C54.8743 64.3794 54.0795 64.7087 53.2507 64.7087H51.1673C50.3385 64.7087 49.5437 64.3794 48.9576 63.7934C48.3716 63.2073 48.0423 62.4125 48.0423 61.5837ZM40.7507 58.4587C39.9218 58.4587 39.127 58.7879 38.5409 59.374C37.9549 59.96 37.6257 60.7549 37.6257 61.5837C37.6257 62.4125 37.9549 63.2073 38.5409 63.7934C39.127 64.3794 39.9218 64.7087 40.7507 64.7087H42.834C43.6628 64.7087 44.4576 64.3794 45.0437 63.7934C45.6297 63.2073 45.959 62.4125 45.959 61.5837C45.959 60.7549 45.6297 59.96 45.0437 59.374C44.4576 58.7879 43.6628 58.4587 42.834 58.4587H40.7507ZM58.459 61.5837C58.459 60.7549 58.7882 59.96 59.3743 59.374C59.9603 58.7879 60.7552 58.4587 61.584 58.4587H63.6673C64.4961 58.4587 65.291 58.7879 65.877 59.374C66.4631 59.96 66.7923 60.7549 66.7923 61.5837C66.7923 62.4125 66.4631 63.2073 65.877 63.7934C65.291 64.3794 64.4961 64.7087 63.6673 64.7087H61.584C60.7552 64.7087 59.9603 64.3794 59.3743 63.7934C58.7882 63.2073 58.459 62.4125 58.459 61.5837ZM59.3881 40.0774C59.2474 39.6666 58.9817 39.31 58.6284 39.0576C58.275 38.8051 57.8516 38.6694 57.4173 38.6694C56.983 38.6694 56.5596 38.8051 56.2063 39.0576C55.8529 39.31 55.5873 39.6666 55.4465 40.0774L55.1756 40.8649C54.8673 41.7686 54.3561 42.5896 53.6811 43.2649C53.0061 43.9402 52.1854 44.4519 51.2819 44.7607L50.4944 45.0295C50.0836 45.1703 49.727 45.4359 49.4746 45.7893C49.2221 46.1426 49.0864 46.5661 49.0864 47.0003C49.0864 47.4346 49.2221 47.858 49.4746 48.2114C49.727 48.5647 50.0836 48.8304 50.4944 48.9712L51.2819 49.242C52.1856 49.5503 53.0066 50.0616 53.6819 50.7366C54.3572 51.4115 54.8689 52.2323 55.1777 53.1357L55.4465 53.9232C55.5873 54.3341 55.8529 54.6906 56.2063 54.9431C56.5596 55.1955 56.983 55.3312 57.4173 55.3312C57.8516 55.3312 58.275 55.1955 58.6284 54.9431C58.9817 54.6906 59.2474 54.3341 59.3881 53.9232L59.659 53.1357C59.9673 52.2321 60.4786 51.4111 61.1535 50.7358C61.8285 50.0604 62.6492 49.5487 63.5527 49.2399L64.3402 48.9712C64.7511 48.8304 65.1076 48.5647 65.3601 48.2114C65.6125 47.858 65.7482 47.4346 65.7482 47.0003C65.7482 46.5661 65.6125 46.1426 65.3601 45.7893C65.1076 45.4359 64.7511 45.1703 64.3402 45.0295L63.5527 44.7587C62.6491 44.4503 61.8281 43.9391 61.1527 43.2641C60.4774 42.5891 59.9657 41.7684 59.6569 40.8649L59.3881 40.0774Z" fill="#FFD500"/>
</svg>
