<svg width="94" height="94" viewBox="0 0 94 94" fill="none" xmlns="http://www.w3.org/2000/svg">
<rect width="94" height="94" rx="19" fill="#79EDFF"/>
<path d="M56.896 29.417V26.167C56.896 25.3128 56.1877 24.6045 55.3335 24.6045C54.4793 24.6045 53.771 25.3128 53.771 26.167V29.292H40.2293V26.167C40.2293 25.3128 39.521 24.6045 38.6668 24.6045C37.8127 24.6045 37.1043 25.3128 37.1043 26.167V29.417C31.4793 29.9378 28.7502 33.292 28.3335 38.2712C28.2918 38.8753 28.7918 39.3753 29.3752 39.3753H64.6251C65.2293 39.3753 65.7293 38.8545 65.6668 38.2712C65.2501 33.292 62.521 29.9378 56.896 29.417Z" fill="#0088FF"/>
<path d="M61.5833 53.25C56.9792 53.25 53.25 56.9792 53.25 61.5833C53.25 63.1458 53.6875 64.625 54.4583 65.875C55.8958 68.2917 58.5417 69.9167 61.5833 69.9167C64.625 69.9167 67.2708 68.2917 68.7083 65.875C69.4792 64.625 69.9167 63.1458 69.9167 61.5833C69.9167 56.9792 66.1875 53.25 61.5833 53.25ZM65.8958 60.6875L61.4583 64.7917C61.1667 65.0625 60.7708 65.2083 60.3958 65.2083C60 65.2083 59.6042 65.0625 59.2917 64.75L57.2292 62.6875C56.625 62.0833 56.625 61.0833 57.2292 60.4792C57.8333 59.875 58.8333 59.875 59.4375 60.4792L60.4375 61.4792L63.7708 58.3958C64.3958 57.8125 65.3958 57.8542 65.9792 58.4792C66.5625 59.1042 66.5208 60.0833 65.8958 60.6875Z" fill="#0088FF"/>
<path d="M63.6667 42.5H30.3333C29.1875 42.5 28.25 43.4375 28.25 44.5833V57.4167C28.25 63.6667 31.375 67.8333 38.6667 67.8333H48.9375C50.375 67.8333 51.375 66.4375 50.9167 65.0833C50.5 63.875 50.1458 62.5417 50.1458 61.5833C50.1458 55.2708 55.2917 50.125 61.6042 50.125C62.2083 50.125 62.8125 50.1667 63.3958 50.2708C64.6458 50.4583 65.7708 49.4792 65.7708 48.2292V44.6042C65.75 43.4375 64.8125 42.5 63.6667 42.5ZM41.1875 59.9375C40.7917 60.3125 40.25 60.5417 39.7083 60.5417C39.1667 60.5417 38.625 60.3125 38.2292 59.9375C37.8542 59.5417 37.625 59 37.625 58.4583C37.625 57.9167 37.8542 57.375 38.2292 56.9792C38.4375 56.7917 38.6458 56.6458 38.9167 56.5417C39.6875 56.2083 40.6042 56.3958 41.1875 56.9792C41.5625 57.375 41.7917 57.9167 41.7917 58.4583C41.7917 59 41.5625 59.5417 41.1875 59.9375ZM41.1875 52.6458C41.0833 52.7292 40.9792 52.8125 40.875 52.8958C40.75 52.9792 40.625 53.0417 40.5 53.0833C40.375 53.1458 40.25 53.1875 40.125 53.2083C39.9792 53.2292 39.8333 53.25 39.7083 53.25C39.1667 53.25 38.625 53.0208 38.2292 52.6458C37.8542 52.25 37.625 51.7083 37.625 51.1667C37.625 50.625 37.8542 50.0833 38.2292 49.6875C38.7083 49.2083 39.4375 48.9792 40.125 49.125C40.25 49.1458 40.375 49.1875 40.5 49.25C40.625 49.2917 40.75 49.3542 40.875 49.4375C40.9792 49.5208 41.0833 49.6042 41.1875 49.6875C41.5625 50.0833 41.7917 50.625 41.7917 51.1667C41.7917 51.7083 41.5625 52.25 41.1875 52.6458ZM48.4792 52.6458C48.0833 53.0208 47.5417 53.25 47 53.25C46.4583 53.25 45.9167 53.0208 45.5208 52.6458C45.1458 52.25 44.9167 51.7083 44.9167 51.1667C44.9167 50.625 45.1458 50.0833 45.5208 49.6875C46.3125 48.9167 47.7083 48.9167 48.4792 49.6875C48.8542 50.0833 49.0833 50.625 49.0833 51.1667C49.0833 51.7083 48.8542 52.25 48.4792 52.6458Z" fill="#0088FF"/>
</svg>
