<svg width="94" height="94" viewBox="0 0 94 94" fill="none" xmlns="http://www.w3.org/2000/svg">
<rect width="94" height="94" rx="19" fill="#C1FF2F" fill-opacity="0.5"/>
<path d="M44.0433 39.8189C42.3607 41.0675 40.3224 41.7443 38.2271 41.7501C36.0465 41.7501 34.0458 41.0189 32.409 39.8189C31.0027 40.9907 29.6002 42.6689 28.4527 44.737C25.7846 49.5426 25.4902 54.472 27.7965 55.7507C28.824 56.3357 29.9077 55.897 31.0252 54.8207C30.8159 55.9803 30.7111 57.1562 30.7121 58.3345C30.7121 63.8432 32.8496 68.2945 35.4802 68.2945C37.0665 68.2945 37.8521 66.6726 38.229 64.192C38.604 66.6557 39.3915 68.2945 40.9665 68.2945C43.5858 68.2945 45.7402 63.8414 45.7402 58.3345C45.7402 57.097 45.624 55.9157 45.4252 54.8226C46.5502 55.9007 47.6302 56.347 48.6615 55.7545C50.9621 54.4757 50.664 49.5482 47.9977 44.7407C46.854 42.6707 45.4477 40.9945 44.0415 39.8226L44.0433 39.8189ZM38.2252 39.8751C39.2792 39.8747 40.3228 39.6668 41.2964 39.2631C42.27 38.8594 43.1546 38.2679 43.8996 37.5224C44.6446 36.7768 45.2355 35.8919 45.6385 34.918C46.0415 33.9441 46.2487 32.9003 46.2483 31.8464C46.248 30.7924 46.04 29.7488 45.6363 28.7752C45.2326 27.8016 44.6411 26.917 43.8956 26.172C43.1501 25.427 42.2651 24.8361 41.2912 24.4331C40.3173 24.0301 39.2736 23.8229 38.2196 23.8232C36.0905 23.824 34.0489 24.6705 32.5439 26.1765C31.0389 27.6826 30.1938 29.7248 30.1946 31.8539C30.1953 33.983 31.0418 36.0246 32.5479 37.5296C34.0539 39.0345 36.0961 39.8796 38.2252 39.8789V39.8751ZM58.2258 50.1314C61.0533 50.1314 63.3483 47.8364 63.3483 45.0051C63.3483 42.1739 61.0496 39.8751 58.224 39.8751C56.8636 39.8756 55.559 40.4163 54.5971 41.3782C53.6351 42.3402 53.0945 43.6447 53.094 45.0051C53.095 46.3655 53.6361 47.6699 54.5984 48.6315C55.5607 49.5931 56.8654 50.1314 58.2258 50.1314ZM64.4696 53.2382C63.7383 51.9164 62.8421 50.8439 61.9421 50.0939C60.8921 50.8626 59.6171 51.3314 58.224 51.3314C56.8308 51.3314 55.5502 50.8626 54.5058 50.0939C53.6058 50.8439 52.7096 51.9164 51.9746 53.2382C50.2683 56.3095 50.0808 59.4595 51.5546 60.277C52.2108 60.652 52.9046 60.3707 53.6171 59.6845C53.4879 60.4256 53.4226 61.1765 53.4221 61.9289C53.4221 65.4539 54.7871 68.2982 56.469 68.2982C57.4815 68.2982 57.9877 67.2614 58.2277 65.677C58.4677 67.252 58.9702 68.2964 59.979 68.2964C61.6533 68.2964 63.0296 65.4501 63.0296 61.9289C63.0296 61.1414 62.9546 60.3839 62.8271 59.6864C63.5452 60.3745 64.2371 60.6614 64.8971 60.2807C66.3633 59.467 66.1721 56.3151 64.4696 53.2439V53.2382Z" fill="#92CF00"/>
</svg>
