<svg width="345" height="296" viewBox="0 0 345 296" fill="none" xmlns="http://www.w3.org/2000/svg">
<path d="M49.4491 253.671C8.7804 228.667 99.8313 156.059 158.774 184.253C203.534 205.663 212.01 290.376 178.403 291.341C143.107 292.355 146.505 211.43 191.343 177.493C246.259 135.929 342.962 150.833 340.445 191.244C337.005 246.484 208.614 217.969 193.583 134.649C178.552 51.3293 299.296 4.46516 317.964 38.4584C337.24 73.5612 241.928 128.546 179.394 110.554C123.878 94.5807 90.7601 21.0467 123.89 6.7053C168.615 -12.6551 181.85 100.843 141.471 136.146C97.9577 174.189 -12.9339 134.555 6.83868 100.647C23.9277 71.3415 100.068 112.794 112.506 162.284C124.777 211.11 76.5991 270.363 49.4491 253.671Z" stroke="#FF8000" stroke-width="9"/>
</svg>
