<svg width="94" height="94" viewBox="0 0 94 94" fill="none" xmlns="http://www.w3.org/2000/svg">
<rect width="94" height="94" rx="19" fill="#FF817C" fill-opacity="0.59"/>
<g clip-path="url(#clip0_388_9821)">
<path fill-rule="evenodd" clip-rule="evenodd" d="M44.4317 24.3694C43.9966 24.5381 43.5021 24.8879 42.9587 25.5137C42.125 26.4739 41.3085 27.944 40.5935 29.876C39.8317 31.9336 39.2174 34.43 38.8091 37.2169H51.3566C50.9483 34.43 50.3331 31.9336 49.5722 29.876C48.8573 27.944 48.0408 26.4739 47.207 25.5137C46.6636 24.8879 46.1682 24.5381 45.734 24.3694C45.2997 24.356 44.866 24.356 44.4317 24.3694ZM35.9044 37.2169H25.9042C28.3413 31.2829 33.4511 26.7298 39.7358 25.0556C39.0401 26.151 38.4268 27.4467 37.8968 28.8784C37.0199 31.2493 36.3366 34.0889 35.9054 37.2159M24.9641 50.0739H35.5863C35.4473 48.4138 35.3783 46.7487 35.3793 45.0829C35.3793 43.377 35.4511 41.7057 35.5872 40.0919H24.9641C24.5614 41.725 24.3584 43.4009 24.3594 45.0829C24.3594 46.804 24.5693 48.4754 24.9641 50.0739ZM35.9035 52.9489C36.1613 54.8272 36.5101 56.6001 36.9365 58.2322V64.1451C31.9358 61.9998 27.9751 57.9799 25.9042 52.9479L35.9035 52.9489ZM52.2689 28.8784C51.739 27.4467 51.1247 26.151 50.4289 25.0547C56.7156 26.7289 61.8254 31.2819 64.2615 37.2159H54.2603C53.8291 34.0889 53.1458 31.2493 52.2689 28.8784ZM65.2026 40.0909H54.5785C54.6887 41.4029 54.7568 42.7512 54.7778 44.1255C55.7541 44.1371 56.7223 44.304 57.6461 44.62C59.0491 45.0992 61.2801 45.908 64.3391 47.15C64.7978 47.3365 65.2333 47.5154 65.6453 47.6867C65.9638 45.1493 65.8138 42.5741 65.2026 40.0909ZM51.693 40.0919C51.8234 41.5739 51.8954 43.0604 51.9086 44.5481L51.6863 44.6209C50.2823 45.1001 48.0513 45.909 44.9933 47.151C43.0862 47.9262 41.5893 48.5722 40.4402 49.0906C39.884 49.3408 39.3681 49.6725 38.9098 50.0748H38.4718C38.3258 48.4149 38.2532 46.7492 38.2543 45.0829C38.2543 43.3646 38.3309 41.6932 38.4728 40.0919H51.693ZM52.6168 46.8625C53.9458 46.4071 55.3885 46.4071 56.7175 46.8625C58.0688 47.3244 60.249 48.1131 63.2581 49.335C64.7543 49.9397 66.239 50.5723 67.7115 51.2325C68.8481 51.7452 69.5228 52.7965 69.5228 53.9379C69.5228 55.0792 68.8481 56.1305 67.7115 56.6432C66.239 57.3031 64.7543 57.9354 63.2581 58.5398C60.249 59.7626 58.0688 60.5513 56.7175 61.0123C55.3882 61.4679 53.9451 61.4679 52.6158 61.0123C51.2655 60.5513 49.0853 59.7626 46.0762 58.5398C44.9405 58.0797 43.8109 57.605 42.6875 57.1157V65.4954C42.6875 65.8766 42.5361 66.2422 42.2665 66.5118C41.9969 66.7814 41.6313 66.9329 41.25 66.9329C40.8688 66.9329 40.5031 66.7814 40.2335 66.5118C39.964 66.2422 39.8125 65.8766 39.8125 65.4954V54.0404L39.8106 53.9369C39.8106 52.7955 40.4862 51.7442 41.6218 51.2315C43.0946 50.5713 44.5797 49.9387 46.0762 49.334C49.0853 48.1122 51.2655 47.3244 52.6168 46.8625ZM51.6872 63.732C50.2976 63.2577 48.0963 62.4603 45.0833 61.2385C45.0881 63.1015 45.1849 64.3243 45.2894 65.1101C45.358 65.6565 45.5586 66.1779 45.8738 66.6294C46.1891 67.0808 46.6095 67.4488 47.0987 67.7015C48.4059 68.3771 50.8611 69.2702 54.6667 69.2702C58.4722 69.2702 60.9265 68.3771 62.2346 67.7015C62.7238 67.4486 63.1441 67.0804 63.4592 66.6288C63.7742 66.1771 63.9746 65.6556 64.043 65.1092C64.1484 64.3243 64.2443 63.1015 64.25 61.2394C61.237 62.4613 59.0367 63.2577 57.6471 63.732C55.7113 64.3933 53.6221 64.3933 51.6863 63.732" fill="#FF5952"/>
</g>
<defs>
<clipPath id="clip0_388_9821">
<rect width="46" height="46" fill="white" transform="translate(24 24)"/>
</clipPath>
</defs>
</svg>
